<!-- icon666.com - MILLIONS vector ICONS FREE --><svg viewBox="-75 0 511 512" xmlns="http://www.w3.org/2000/svg"><path d="m359.351562 76.046875-73.714843-73.828125c-1.417969-1.421875-3.339844-2.21875-5.347657-2.21875h-272.230468c-4.171875 0-7.558594 3.386719-7.558594 7.558594v496.882812c0 4.171875 3.386719 7.558594 7.558594 7.558594h345.945312c4.175782 0 7.558594-3.386719 7.558594-7.558594v-423.050781c0-2.003906-.792969-3.925781-2.210938-5.34375zm0 0" fill="#ededef"></path><path d="m89.589844 225.792969c28.285156 0 51.292968-23.011719 51.292968-51.292969s-23.007812-51.292969-51.292968-51.292969c-28.28125 0-51.292969 23.011719-51.292969 51.292969s23.011719 51.292969 51.292969 51.292969zm0 0" fill="#29b797"></path><path d="m89.589844 240.335938c-28.28125 0-51.292969 23.007812-51.292969 51.292968 0 28.28125 23.011719 51.292969 51.292969 51.292969 28.285156 0 51.292968-23.011719 51.292968-51.292969 0-28.285156-23.007812-51.292968-51.292968-51.292968zm0 0" fill="#29b797"></path><path d="m89.589844 357.464844c-28.28125 0-51.292969 23.011718-51.292969 51.292968s23.011719 51.292969 51.292969 51.292969c28.285156 0 51.292968-23.011719 51.292968-51.292969s-23.007812-51.292968-51.292968-51.292968zm0 0" fill="#29b797"></path><g fill="#ccd8d3"><path d="m313.269531 177.398438h-141.34375c-4.175781 0-7.558593-3.382813-7.558593-7.558594 0-4.175782 3.382812-7.5625 7.558593-7.5625h141.34375c4.175781 0 7.5625 3.386718 7.5625 7.5625 0 4.175781-3.386719 7.558594-7.5625 7.558594zm0 0"></path><path d="m220.199219 215.761719h-48.273438c-4.175781 0-7.558593-3.382813-7.558593-7.558594s3.382812-7.5625 7.558593-7.5625h48.273438c4.175781 0 7.558593 3.386719 7.558593 7.5625s-3.382812 7.558594-7.558593 7.558594zm0 0"></path><path d="m220.199219 322.910156h-48.273438c-4.175781 0-7.558593-3.386718-7.558593-7.5625 0-4.175781 3.382812-7.558594 7.558593-7.558594h48.273438c4.175781 0 7.558593 3.382813 7.558593 7.558594 0 4.175782-3.382812 7.5625-7.558593 7.5625zm0 0"></path><path d="m313.269531 285.074219h-141.34375c-4.175781 0-7.558593-3.382813-7.558593-7.558594s3.382812-7.558594 7.558593-7.558594h141.34375c4.175781 0 7.5625 3.382813 7.5625 7.558594s-3.386719 7.558594-7.5625 7.558594zm0 0"></path><path d="m220.199219 435.234375h-48.273438c-4.175781 0-7.558593-3.386719-7.558593-7.5625 0-4.171875 3.382812-7.558594 7.558593-7.558594h48.273438c4.175781 0 7.558593 3.386719 7.558593 7.558594 0 4.175781-3.382812 7.5625-7.558593 7.5625zm0 0"></path><path d="m313.269531 397.402344h-141.34375c-4.175781 0-7.558593-3.386719-7.558593-7.5625 0-4.171875 3.382812-7.558594 7.558593-7.558594h141.34375c4.175781 0 7.5625 3.386719 7.5625 7.558594 0 4.175781-3.386719 7.5625-7.5625 7.5625zm0 0"></path></g><path d="m280.289062 41.289062h-221.730468c-4.175782 0-7.5625 3.382813-7.5625 7.558594v43.300782c0 4.175781 3.386718 7.5625 7.5625 7.5625h221.730468c4.175782 0 7.558594-3.386719 7.558594-7.5625v-43.300782c0-4.175781-3.382812-7.558594-7.558594-7.558594zm0 0" fill="#5c817b"></path><path d="m359.351562 76.046875-73.714843-73.828125c-1.417969-1.421875-3.339844-2.21875-5.347657-2.21875h-30.242187c2.007813 0 3.929687.796875 5.351563 2.21875l73.714843 73.828125c1.414063 1.417969 2.210938 3.339844 2.210938 5.34375v423.050781c0 4.171875-3.386719 7.558594-7.5625 7.558594h30.242187c4.175782 0 7.558594-3.386719 7.558594-7.558594v-423.050781c0-2.003906-.792969-3.925781-2.210938-5.34375zm0 0" fill="#ccd8d3"></path><path d="m89.589844 123.207031c-5.261719 0-10.335938.800781-15.121094 2.277344 20.925781 6.46875 36.171875 25.996094 36.171875 49.015625 0 23.023438-15.246094 42.546875-36.171875 49.015625 4.785156 1.480469 9.859375 2.277344 15.121094 2.277344 28.285156 0 51.292968-23.007813 51.292968-51.292969 0-28.28125-23.007812-51.292969-51.292968-51.292969zm0 0" fill="#00a983"></path><path d="m89.589844 240.335938c-5.261719 0-10.335938.796874-15.121094 2.277343 20.925781 6.46875 36.171875 25.996094 36.171875 49.015625 0 23.023438-15.246094 42.546875-36.171875 49.015625 4.785156 1.476563 9.859375 2.277344 15.121094 2.277344 28.285156 0 51.292968-23.007813 51.292968-51.292969 0-28.28125-23.007812-51.292968-51.292968-51.292968zm0 0" fill="#00a983"></path><path d="m89.589844 357.464844c-5.261719 0-10.335938.800781-15.121094 2.277344 20.925781 6.46875 36.171875 25.996093 36.171875 49.015624 0 23.023438-15.246094 42.546876-36.171875 49.015626 4.785156 1.480468 9.859375 2.277343 15.121094 2.277343 28.285156 0 51.292968-23.007812 51.292968-51.292969 0-28.28125-23.007812-51.292968-51.292968-51.292968zm0 0" fill="#00a983"></path><path d="m280.289062 41.289062h-30.242187c4.175781 0 7.558594 3.382813 7.558594 7.558594v43.300782c0 4.175781-3.382813 7.5625-7.558594 7.5625h30.242187c4.175782 0 7.558594-3.386719 7.558594-7.5625v-43.300782c0-4.175781-3.382812-7.558594-7.558594-7.558594zm0 0" fill="#416d65"></path><path d="m78.273438 197.621094c-2.050782 0-4.09375-.828125-5.585938-2.464844l-7.625-8.359375c-2.816406-3.085937-2.597656-7.867187.488281-10.679687 3.085938-2.816407 7.867188-2.597657 10.679688.488281l2.535156 2.78125 25.007813-22.78125c3.085937-2.8125 7.867187-2.589844 10.679687.5 2.8125 3.085937 2.589844 7.867187-.5 10.679687l-30.589844 27.867188c-1.449219 1.316406-3.269531 1.96875-5.089843 1.96875zm0 0" fill="#d0cfd1"></path><path d="m78.273438 314.75c-2.050782 0-4.09375-.828125-5.585938-2.464844l-7.625-8.359375c-2.816406-3.085937-2.597656-7.867187.488281-10.683593 3.085938-2.8125 7.867188-2.59375 10.679688.492187l2.535156 2.777344 25.007813-22.777344c3.085937-2.8125 7.867187-2.589844 10.679687.496094 2.8125 3.089843 2.589844 7.871093-.5 10.679687l-30.589844 27.867188c-1.449219 1.320312-3.269531 1.972656-5.089843 1.972656zm0 0" fill="#d0cfd1"></path><path d="m78.273438 431.878906c-2.050782 0-4.09375-.828125-5.585938-2.464844l-7.625-8.359374c-2.816406-3.085938-2.597656-7.867188.488281-10.679688 3.085938-2.816406 7.867188-2.597656 10.679688.488281l2.535156 2.777344 25.007813-22.777344c3.085937-2.8125 7.867187-2.589843 10.679687.5 2.8125 3.085938 2.589844 7.867188-.5 10.679688l-30.589844 27.867187c-1.449219 1.316406-3.269531 1.96875-5.089843 1.96875zm0 0" fill="#d0cfd1"></path></svg>